<svg width="23" height="32" viewBox="0 0 23 32" fill="none" xmlns="http://www.w3.org/2000/svg">
<path d="M22.512 3.456C22.512 4.096 22.3733 4.576 22.096 4.896C21.84 5.216 21.4133 5.376 20.816 5.376C20.7733 5.824 20.6773 6.60267 20.528 7.712C20.3147 9.20533 20.1973 10.0373 20.176 10.208C18.2773 24.352 14.32 31.424 8.304 31.424C6.53333 31.424 5.14667 30.9227 4.144 29.92C3.16267 28.9173 2.672 27.6587 2.672 26.144C2.672 23.4347 3.824 21.0453 6.128 18.976C8.432 16.8853 11.4613 15.1573 15.216 13.792C15.4507 12.2773 15.632 10.9227 15.76 9.728L16.336 4.896C15.056 4.768 13.8613 4.704 12.752 4.704C9.78667 4.704 7.6 4.992 6.192 5.568C4.784 6.144 4.08 7.08267 4.08 8.384C4.08 9.024 4.29333 9.71733 4.72 10.464C4.848 10.6773 4.912 10.9013 4.912 11.136C4.912 11.584 4.67733 11.9893 4.208 12.352C3.76 12.6933 3.26933 12.864 2.736 12.864C2.05333 12.864 1.53067 12.576 1.168 12C0.570667 11.0187 0.272 9.87733 0.272 8.576C0.272 3.456 4.752 0.895998 13.712 0.895998C16.3147 0.895998 18.64 1.152 20.688 1.664C21.904 1.96267 22.512 2.56 22.512 3.456ZM8.72 28C9.76533 28 10.8107 27.2107 11.856 25.632C12.9013 24.0533 13.8187 21.2907 14.608 17.344C9.40267 19.6267 6.8 22.4213 6.8 25.728C6.8 26.4533 6.97067 27.0187 7.312 27.424C7.65333 27.808 8.12267 28 8.72 28Z" fill="white"/>
</svg>
